<?xml version="1.0" encoding="UTF-8"?>
<svg width="33px" height="33px" viewBox="0 0 33 33" version="1.1" xmlns="http://www.w3.org/2000/svg" xmlns:xlink="http://www.w3.org/1999/xlink">
    <!-- Generator: Sketch 52.2 (67145) - http://www.bohemiancoding.com/sketch -->
    <title>Group 8</title>
    <desc>Created with Sketch.</desc>
    <g id="Extras" stroke="none" stroke-width="1" fill="none" fill-rule="evenodd">
        <g id="Patient-Referral" transform="translate(-112.000000, -458.000000)">
            <g id="Group-8" transform="translate(112.000000, 458.000000)">
                <rect id="Bg" fill="#E5E5E5" transform="translate(16.500000, 16.500000) scale(-1, 1) translate(-16.500000, -16.500000) " x="0" y="0" width="33" height="33" rx="5"></rect>
                <path d="M19.9,16.5 C19.9,16.9692 19.5192,17.35 19.05,17.35 L17.35,17.35 L17.35,19.05 C17.35,19.5192 16.9692,19.9 16.5,19.9 C16.0308,19.9 15.65,19.5192 15.65,19.05 L15.65,17.35 L13.95,17.35 C13.4808,17.35 13.1,16.9692 13.1,16.5 C13.1,16.0308 13.4808,15.65 13.95,15.65 L15.65,15.65 L15.65,13.95 C15.65,13.4808 16.0308,13.1 16.5,13.1 C16.9692,13.1 17.35,13.4808 17.35,13.95 L17.35,15.65 L19.05,15.65 C19.5192,15.65 19.9,16.0308 19.9,16.5 M16.5,23.3 C12.75065,23.3 9.7,20.24935 9.7,16.5 C9.7,12.75065 12.75065,9.7 16.5,9.7 C20.24935,9.7 23.3,12.75065 23.3,16.5 C23.3,20.24935 20.24935,23.3 16.5,23.3 M16.5,8 C11.80545,8 8,11.80545 8,16.5 C8,21.19455 11.80545,25 16.5,25 C21.19455,25 25,21.19455 25,16.5 C25,11.80545 21.19455,8 16.5,8" id="plus_circle-[#1427]-copy-2" fill="#767676"></path>
            </g>
        </g>
    </g>
</svg>