<?xml version="1.0" encoding="UTF-8"?>
<svg width="12px" height="12px" viewBox="0 0 12 12" version="1.1" xmlns="http://www.w3.org/2000/svg" xmlns:xlink="http://www.w3.org/1999/xlink">
    <!-- Generator: Sketch 51.3 (57544) - http://www.bohemiancoding.com/sketch -->
    <title>ic_grain</title>
    <desc>Created with Sketch.</desc>
    <defs>
        <linearGradient x1="3.11304209%" y1="50%" x2="100%" y2="50%" id="linearGradient-1">
            <stop stop-color="#B91515" offset="0%"></stop>
            <stop stop-color="#15C17F" offset="100%"></stop>
        </linearGradient>
    </defs>
    <g id="Page-1" stroke="none" stroke-width="1" fill="none" fill-rule="evenodd">
        <g id="dashboard_open_menu" transform="translate(-1120.000000, -335.000000)">
            <g id="latest-message" transform="translate(1098.000000, 315.000000)">
                <g id="heading" transform="translate(20.000000, 15.000000)">
                    <g id="ic_grain" transform="translate(0.000000, 3.000000)">
                        <polygon id="Bounds" points="0 0 16 0 16 16 0 16"></polygon>
                        <path d="M6.66666667,8 C5.93333333,8 5.33333333,8.6 5.33333333,9.33333333 C5.33333333,10.0666667 5.93333333,10.6666667 6.66666667,10.6666667 C7.4,10.6666667 8,10.0666667 8,9.33333333 C8,8.6 7.4,8 6.66666667,8 L6.66666667,8 Z M4,5.33333333 C3.26666667,5.33333333 2.66666667,5.93333333 2.66666667,6.66666667 C2.66666667,7.4 3.26666667,8 4,8 C4.73333333,8 5.33333333,7.4 5.33333333,6.66666667 C5.33333333,5.93333333 4.73333333,5.33333333 4,5.33333333 L4,5.33333333 Z M4,10.6666667 C3.26666667,10.6666667 2.66666667,11.2666667 2.66666667,12 C2.66666667,12.7333333 3.26666667,13.3333333 4,13.3333333 C4.73333333,13.3333333 5.33333333,12.7333333 5.33333333,12 C5.33333333,11.2666667 4.73333333,10.6666667 4,10.6666667 L4,10.6666667 Z M12,5.33333333 C12.7333333,5.33333333 13.3333333,4.73333333 13.3333333,4 C13.3333333,3.26666667 12.7333333,2.66666667 12,2.66666667 C11.2666667,2.66666667 10.6666667,3.26666667 10.6666667,4 C10.6666667,4.73333333 11.2666667,5.33333333 12,5.33333333 L12,5.33333333 Z M9.33333333,10.6666667 C8.6,10.6666667 8,11.2666667 8,12 C8,12.7333333 8.6,13.3333333 9.33333333,13.3333333 C10.0666667,13.3333333 10.6666667,12.7333333 10.6666667,12 C10.6666667,11.2666667 10.0666667,10.6666667 9.33333333,10.6666667 L9.33333333,10.6666667 Z M12,8 C11.2666667,8 10.6666667,8.6 10.6666667,9.33333333 C10.6666667,10.0666667 11.2666667,10.6666667 12,10.6666667 C12.7333333,10.6666667 13.3333333,10.0666667 13.3333333,9.33333333 C13.3333333,8.6 12.7333333,8 12,8 L12,8 Z M9.33333333,5.33333333 C8.6,5.33333333 8,5.93333333 8,6.66666667 C8,7.4 8.6,8 9.33333333,8 C10.0666667,8 10.6666667,7.4 10.6666667,6.66666667 C10.6666667,5.93333333 10.0666667,5.33333333 9.33333333,5.33333333 L9.33333333,5.33333333 Z M6.66666667,2.66666667 C5.93333333,2.66666667 5.33333333,3.26666667 5.33333333,4 C5.33333333,4.73333333 5.93333333,5.33333333 6.66666667,5.33333333 C7.4,5.33333333 8,4.73333333 8,4 C8,3.26666667 7.4,2.66666667 6.66666667,2.66666667 L6.66666667,2.66666667 Z" id="Icon" fill="url(#linearGradient-1)"></path>
                    </g>
                </g>
            </g>
        </g>
    </g>
</svg>