<?xml version="1.0" encoding="utf-8"?>
<svg width="220.66669px" height="66.20001px" viewBox="0 0 220.66669 66.20001" version="1.1" xmlns:xlink="http://www.w3.org/1999/xlink" xmlns="http://www.w3.org/2000/svg">
  <g id="menu-option-2">
    <g id="Page-1" opacity="0.4">
      <g id="patient_listing">
        <g id="patient-lists">
          <g id="patient-listing">
            <g id="Group">
              <g id="patient_1">
                <g id="addcontrol">
                  <path d="M198.6 33.1C198.6 39.1793 193.646 44.1333 187.567 44.1333C181.487 44.1333 176.533 39.1793 176.533 33.1C176.533 27.0207 181.487 22.0667 187.567 22.0667C193.646 22.0667 198.6 27.0207 198.6 33.1M154.467 33.1C154.467 51.3822 169.284 66.2 187.567 66.2C205.849 66.2 220.667 51.3822 220.667 33.1C220.667 14.8178 205.849 0 187.567 0C169.284 0 154.467 14.8178 154.467 33.1M121.367 33.1C121.367 39.1793 116.413 44.1333 110.333 44.1333C104.254 44.1333 99.3 39.1793 99.3 33.1C99.3 27.0207 104.254 22.0667 110.333 22.0667C116.413 22.0667 121.367 27.0207 121.367 33.1M77.2333 33.1C77.2333 51.3822 92.0511 66.2 110.333 66.2C128.616 66.2 143.433 51.3822 143.433 33.1C143.433 14.8178 128.616 0 110.333 0C92.0511 0 77.2333 14.8178 77.2333 33.1M22.0667 33.1C22.0667 27.0207 27.0206 22.0667 33.1 22.0667C39.1794 22.0667 44.1333 27.0207 44.1333 33.1C44.1333 39.1793 39.1794 44.1333 33.1 44.1333C27.0206 44.1333 22.0667 39.1793 22.0667 33.1M33.1 0C14.8178 0 -7.99143e-07 14.8178 0 33.1C7.99138e-07 51.3822 14.8178 66.2 33.1 66.2C51.3822 66.2 66.2 51.3822 66.2 33.1C66.2 14.8178 51.3822 0 33.1 0L33.1 0Z" id="menu_option-[#1374]" fill="#555252" fill-rule="evenodd" stroke="none" />
                </g>
              </g>
            </g>
          </g>
        </g>
      </g>
    </g>
  </g>
</svg>