<?xml version="1.0" encoding="UTF-8"?>
<svg width="17px" height="17px" viewBox="0 0 17 17" version="1.1" xmlns="http://www.w3.org/2000/svg" xmlns:xlink="http://www.w3.org/1999/xlink">
    <!-- Generator: Sketch 51.3 (57544) - http://www.bohemiancoding.com/sketch -->
    <title>plus_circle [#1427]</title>
    <desc>Created with Sketch.</desc>
    <defs></defs>
    <g id="Page-1" stroke="none" stroke-width="1" fill="none" fill-rule="evenodd">
        <g id="add_patient" transform="translate(-238.000000, -256.000000)" fill="#B0B0B0">
            <g id="appointment" transform="translate(82.000000, 238.000000)">
                <g id="heading" transform="translate(12.000000, 15.000000)">
                    <path d="M155.9,11.5 C155.9,11.9692 155.5192,12.35 155.05,12.35 L153.35,12.35 L153.35,14.05 C153.35,14.5192 152.9692,14.9 152.5,14.9 C152.0308,14.9 151.65,14.5192 151.65,14.05 L151.65,12.35 L149.95,12.35 C149.4808,12.35 149.1,11.9692 149.1,11.5 C149.1,11.0308 149.4808,10.65 149.95,10.65 L151.65,10.65 L151.65,8.95 C151.65,8.4808 152.0308,8.1 152.5,8.1 C152.9692,8.1 153.35,8.4808 153.35,8.95 L153.35,10.65 L155.05,10.65 C155.5192,10.65 155.9,11.0308 155.9,11.5 M152.5,18.3 C148.75065,18.3 145.7,15.24935 145.7,11.5 C145.7,7.75065 148.75065,4.7 152.5,4.7 C156.24935,4.7 159.3,7.75065 159.3,11.5 C159.3,15.24935 156.24935,18.3 152.5,18.3 M152.5,3 C147.80545,3 144,6.80545 144,11.5 C144,16.19455 147.80545,20 152.5,20 C157.19455,20 161,16.19455 161,11.5 C161,6.80545 157.19455,3 152.5,3" id="plus_circle-[#1427]"></path>
                </g>
            </g>
        </g>
    </g>
</svg>